Coordinates
version=1
nRows=8
nColumns=29
inDegrees=yes

Units are S.I. units (second, meters, Newtons, ...)
If the header above contains a line with 'inDegrees', this indicates whether rotational values are in degrees (yes) or radians (no).

endheader
time	bJoint_3	seatpos	slocangle	soarinout	sblpos	plocangle	poarinout	pblpos	hipangle	kneeangle	footangle	lbackangle	uarmleft_up	uarmleft_out	uarmleft_trn	se_inout	se_updown	handleleft_out	handleleft_trn	handleleft_up	uarmright_up	uarmright_out	uarmright_trn	pe_inout	pe_updown	handleright_out	handleright_trn	handleright_up
      5.22500000	      0.00587218	     -0.00834486	    -27.90563094	     20.29044696	    -20.29044696	    -28.36248918	     19.49005433	    -19.49005433	     89.25474656	     12.87954249	     12.13428906	    -40.10363361	     57.04734543	     -7.52806241	     19.37821900	    -61.33688485	    -57.74555382	     32.50141492	     40.57471870	    -34.54150740	     60.72117689	     -8.33402269	     19.84808756	    -62.78756735	    -56.58888907	    -33.15551274	    -44.69737781	    -31.71157603
      5.23000000	      0.00582481	     -0.00828543	    -27.67576599	     20.28286882	    -20.28286882	    -28.13483865	     19.48267406	    -19.48267406	     89.28967603	     12.81418117	     12.10385721	    -40.09963017	     56.58825006	     -7.11444594	     18.54653099	    -60.23459725	    -56.39731193	     31.77473003	     40.14429256	    -33.70302019	     60.29045141	     -7.87682597	     19.00675540	    -61.64066843	    -55.32575637	    -32.39452028	    -44.23260822	    -30.88734601
      5.23500000	      0.00582919	     -0.00842901	    -27.44263514	     20.27524445	    -20.27524445	    -27.89318484	     19.47555992	    -19.47555992	     89.20545921	     12.97177386	     12.17723307	    -40.09783826	     56.18990624	     -6.66366023	     17.76203994	    -59.13543222	    -55.18033397	     31.11489261	     39.77452816	    -32.97107710	     60.01790275	     -7.26728249	     18.09480004	    -60.34702752	    -54.26595861	    -31.64631662	    -43.91624019	    -30.26773604
      5.24000000	      0.00580316	     -0.00845109	    -27.22800146	     20.26979976	    -20.26979976	    -27.68628624	     19.46178773	    -19.46178773	     89.19261712	     12.99580688	     12.18842401	    -40.09649307	     55.87481908	     -6.17458545	     16.98145963	    -58.02615618	    -54.11289335	     30.46765970	     39.50112989	    -32.35523394	     59.67525059	     -6.81555667	     17.37496478	    -59.29961938	    -53.20848237	    -31.00893017	    -43.57711734	    -29.59044883
      5.24500000	      0.00581934	     -0.00871367	    -27.01114976	     20.24946590	    -20.24946590	    -27.45033014	     19.45874372	    -19.45874372	     89.04142231	     13.27878479	     12.32020710	    -40.09739006	     55.55242003	     -5.73265954	     16.32001283	    -57.01805612	    -53.06694144	     29.92002060	     39.23049010	    -31.72525488	     59.27125674	     -6.33909438	     16.64956207	    -58.20957182	    -52.08488367	    -30.38240652	    -43.18525279	    -28.88663974
      5.25000000	      0.00577986	     -0.00879184	    -26.80075414	     20.23668929	    -20.23668929	    -27.26022233	     19.46413630	    -19.46413630	     88.99703068	     13.36188007	     12.35891075	    -40.10129911	     55.22650376	     -5.26385347	     15.61727045	    -55.95834381	    -52.01672090	     29.32176855	     38.97836321	    -31.09929188	     58.97055101	     -5.89447519	     15.99496290	    -57.23847645	    -51.20222721	    -29.81659152	    -42.90752466	    -28.35337282
      5.25500000	      0.00572008	     -0.00847051	    -26.57089063	     20.25227578	    -20.25227578	    -27.04059637	     19.45674772	    -19.45674772	     89.18123247	     13.01711070	     12.19834317	    -40.09260615	     54.80495657	     -4.71625747	     14.75879697	    -54.71074617	    -50.81136818	     28.57001021	     38.68641262	    -30.39439654	     58.46346449	     -5.45341859	     15.27694657	    -56.13255398	    -49.92276093	    -29.11130041	    -42.48262107	    -27.49335432
      5.26000000	      0.00572889	     -0.00869181	    -26.35935973	     20.24144212	    -20.24144212	    -26.83132337	     19.44086805	    -19.44086805	     89.05373196	     13.25574078	     12.30947274	    -40.10050327	     54.47337763	     -4.25256619	     14.11880153	    -53.68851889	    -49.80442510	     28.02577348	     38.45519033	    -29.79331155	     58.13841096	     -4.97866665	     14.64889059	    -55.10186427	    -48.95358516	    -28.55244793	    -42.20973931	    -26.87807914
